<svg width="102" height="96" viewBox="0 0 102 96" fill="none" xmlns="http://www.w3.org/2000/svg">
<g clip-path="url(#clip0)">
<path d="M50.9993 72H20.3993V42H10.1993V90C10.1993 93.3187 12.4784 96 15.2993 96H56.0993C58.9203 96 61.1993 93.3187 61.1993 90V42H50.9993V72ZM101.139 26.6625L87.544 2.6625C86.5877 0.99375 84.994 0 83.2887 0H18.7099C17.0046 0 15.4109 0.99375 14.4706 2.6625L0.875881 26.6625C-1.38724 30.6562 1.03525 36 5.11525 36H96.8993C100.963 36 103.386 30.6562 101.139 26.6625ZM81.5993 93C81.5993 94.65 82.7468 96 84.1493 96H89.2493C90.6518 96 91.7993 94.65 91.7993 93V42H81.5993V93Z" fill="#3D73FF"/>
</g>
<defs>
<clipPath id="clip0">
<rect width="102" height="96" fill="white"/>
</clipPath>
</defs>
</svg>
