<svg width="76" height="76" viewBox="0 0 76 76" fill="none" xmlns="http://www.w3.org/2000/svg">
<circle cx="38" cy="38" r="38" fill="#E4E4E4"/>
<path d="M53.8041 34.4404C53.8123 34.3533 53.804 34.2652 53.7797 34.1819C53.7554 34.0986 53.7156 34.0219 53.663 33.9568C53.6103 33.8917 53.546 33.8397 53.4741 33.804C53.4022 33.7684 53.3244 33.75 53.2458 33.75H50.0473L49.8773 33.6238V31.875C49.8773 26.0164 45.596 21.25 40.3334 21.25C37.8022 21.25 35.3747 22.3694 33.5849 24.362C31.795 26.3546 30.7895 29.0571 30.7895 31.875V33.6238L30.6196 33.75H27.4211C27.3424 33.75 27.2646 33.7684 27.1927 33.804C27.1209 33.8397 27.0565 33.8917 27.0039 33.9568C26.9512 34.0219 26.9115 34.0986 26.8871 34.1819C26.8628 34.2652 26.8545 34.3533 26.8628 34.4404L27.5063 41.25H26.2983V40.625C26.2983 40.5001 26.2647 40.378 26.2017 40.2746C26.1388 40.1712 26.0495 40.0911 25.9454 40.0447L23.1383 38.7947C23.072 38.7652 23.0013 38.75 22.9298 38.75H20.6842C20.5353 38.75 20.3925 38.8158 20.2872 38.9331C20.182 39.0503 20.1228 39.2092 20.1228 39.375V41.875C20.1228 42.0408 20.182 42.1997 20.2872 42.3169C20.3925 42.4342 20.5353 42.5 20.6842 42.5H21.6462C21.3229 42.9741 21.129 43.5419 21.0878 44.1354L20.3105 55.3854C20.2808 55.8147 20.3312 56.2462 20.4584 56.6528C20.5856 57.0594 20.7869 57.4324 21.0497 57.7483C21.3124 58.0642 21.631 58.3163 21.9854 58.4886C22.3399 58.661 22.7224 58.75 23.1092 58.75H53.2458C53.3947 58.75 53.5375 58.6842 53.6427 58.5669C53.748 58.4497 53.8072 58.2908 53.8072 58.125V45.625C53.8072 45.5313 53.7883 45.4388 53.7518 45.3543C53.7154 45.2698 53.6624 45.1955 53.5966 45.137L52.8078 44.4344L52.8588 44.4404L53.8041 34.4404ZM31.3509 34.7095L32.4737 33.8762L33.5966 34.7095V38.75H31.3509V34.7095ZM34.3279 33.75L34.158 33.6238V31.875C34.158 30.0516 34.8086 28.303 35.9667 27.0136C37.1248 25.7243 38.6956 25 40.3334 25C41.9713 25 43.542 25.7243 44.7001 27.0136C45.8583 28.303 46.5089 30.0516 46.5089 31.875V33.6238L46.3389 33.75H34.3279ZM47.0703 34.7095L48.1931 33.8762L49.3159 34.7095V38.75H47.0703V34.7095ZM31.9123 31.875C31.9123 29.3886 32.7996 27.004 34.3788 25.2459C35.9581 23.4877 38.1 22.5 40.3334 22.5C42.5668 22.5 44.7088 23.4877 46.288 25.2459C47.8673 27.004 48.7545 29.3886 48.7545 31.875V32.7905L48.5046 32.605C48.4123 32.5365 48.304 32.5 48.1931 32.5C48.0823 32.5 47.9739 32.5365 47.8817 32.605L47.6317 32.7905V31.875C47.6317 29.7201 46.8628 27.6535 45.4941 26.1298C44.1254 24.606 42.2691 23.75 40.3334 23.75C38.3978 23.75 36.5415 24.606 35.1728 26.1298C33.8041 27.6535 33.0351 29.7201 33.0351 31.875V32.7905L32.7852 32.605C32.693 32.5365 32.5846 32.5 32.4737 32.5C32.3629 32.5 32.2545 32.5365 32.1623 32.605L31.9123 32.7905V31.875ZM29.1053 45H32.4737C32.6226 45 32.7654 44.9342 32.8707 44.8169C32.976 44.6997 33.0351 44.5408 33.0351 44.375V42.5H37.6925C38.1163 42.5019 38.5241 42.6809 38.8351 43.0014C39.1461 43.322 39.3377 43.7609 39.372 44.2312L39.9431 52.5H21.6359L22.207 44.2312C22.2413 43.7609 22.4329 43.322 22.7439 43.0014C23.0549 42.6809 23.4627 42.5019 23.8865 42.5H28.5439V44.375C28.5439 44.5408 28.603 44.6997 28.7083 44.8169C28.8136 44.9342 28.9564 45 29.1053 45ZM31.9123 43.75H29.6667V42.5H31.9123V43.75ZM21.2456 40H22.8217L25.1755 41.0481V41.25H21.2456V40ZM38.4696 57.5H23.1092C22.8771 57.5 22.6476 57.4466 22.4349 57.3432C22.2223 57.2397 22.0311 57.0885 21.8735 56.899C21.7158 56.7094 21.595 56.4856 21.5187 56.2416C21.4424 55.9977 21.4122 55.7388 21.43 55.4812L21.5496 53.75H40.0294L40.1487 55.4812C40.1665 55.7387 40.1363 55.9976 40.06 56.2415C39.9837 56.4855 39.863 56.7093 39.7053 56.8988C39.5477 57.0884 39.3566 57.2396 39.144 57.3431C38.9314 57.4465 38.7019 57.4999 38.4698 57.5H38.4696ZM52.6844 57.5H44.8247V45.9254L47.2672 43.75H50.2418L52.6844 45.9254V57.5ZM50.7896 42.637C50.69 42.5483 50.5663 42.5 50.4387 42.5H47.0703C46.9428 42.5 46.819 42.5483 46.7194 42.637L43.9124 45.137C43.8467 45.1955 43.7936 45.2698 43.7572 45.3543C43.7208 45.4388 43.7018 45.5313 43.7019 45.625V57.5H40.7153C41.1233 56.8928 41.3199 56.1416 41.2686 55.3854L40.4913 44.1354C40.4341 43.3516 40.1148 42.6203 39.5966 42.086C39.0783 41.5517 38.3988 41.2534 37.6925 41.25H28.6351L28.0445 35H30.2281V39.375C30.2281 39.5408 30.2873 39.6997 30.3925 39.8169C30.4978 39.9342 30.6406 40 30.7895 40H34.158C34.3069 40 34.4496 39.9342 34.5549 39.8169C34.6602 39.6997 34.7194 39.5408 34.7194 39.375V35H45.9475V39.375C45.9475 39.5408 46.0066 39.6997 46.1119 39.8169C46.2172 39.9342 46.36 40 46.5089 40H49.8773C50.0262 40 50.169 39.9342 50.2743 39.8169C50.3796 39.6997 50.4387 39.5408 50.4387 39.375V35H52.6222L51.8142 43.5494L50.7896 42.637Z" fill="black"/>
<path d="M42.0177 36.25H38.6493C38.5004 36.25 38.3576 36.3158 38.2523 36.4331C38.147 36.5503 38.0879 36.7092 38.0879 36.875V39.375C38.0879 39.5408 38.147 39.6997 38.2523 39.8169C38.3576 39.9342 38.5004 40 38.6493 40H42.0177C42.1666 40 42.3094 39.9342 42.4147 39.8169C42.52 39.6997 42.5791 39.5408 42.5791 39.375V36.875C42.5791 36.7092 42.52 36.5503 42.4147 36.4331C42.3094 36.3158 42.1666 36.25 42.0177 36.25ZM41.4563 38.75H39.2107V37.5H41.4563V38.75Z" fill="black"/>
<path d="M48.7545 50C48.9034 50.0002 49.0461 50.0661 49.1513 50.1833C49.2566 50.3004 49.3158 50.4593 49.3159 50.625C49.3159 50.7908 49.3751 50.9497 49.4804 51.0669C49.5857 51.1842 49.7285 51.25 49.8773 51.25C50.0262 51.25 50.169 51.1842 50.2743 51.0669C50.3796 50.9497 50.4388 50.7908 50.4388 50.625C50.4383 50.2374 50.3301 49.8595 50.1291 49.543C49.9281 49.2266 49.644 48.9871 49.3159 48.8575V48.125C49.3159 47.9592 49.2568 47.8003 49.1515 47.6831C49.0462 47.5658 48.9034 47.5 48.7545 47.5C48.6056 47.5 48.4628 47.5658 48.3576 47.6831C48.2523 47.8003 48.1931 47.9592 48.1931 48.125V48.8575C47.8187 49.0051 47.5032 49.2952 47.3023 49.6766C47.1014 50.0581 47.0281 50.5063 47.0952 50.9421C47.1624 51.3779 47.3658 51.7732 47.6694 52.0583C47.973 52.3434 48.3574 52.4998 48.7545 52.5C48.8656 52.5 48.9741 52.5367 49.0664 52.6053C49.1588 52.674 49.2307 52.7716 49.2732 52.8858C49.3157 53 49.3268 53.1257 49.3052 53.2469C49.2835 53.3682 49.23 53.4795 49.1515 53.5669C49.073 53.6543 48.973 53.7139 48.8641 53.738C48.7552 53.7621 48.6423 53.7497 48.5397 53.7024C48.4371 53.6551 48.3494 53.575 48.2877 53.4722C48.2261 53.3694 48.1931 53.2486 48.1931 53.125C48.1931 52.9592 48.134 52.8003 48.0287 52.6831C47.9234 52.5658 47.7806 52.5 47.6317 52.5C47.4828 52.5 47.34 52.5658 47.2347 52.6831C47.1295 52.8003 47.0703 52.9592 47.0703 53.125C47.0708 53.5126 47.1789 53.8905 47.3799 54.207C47.581 54.5234 47.865 54.7629 48.1931 54.8925V55.625C48.1931 55.7908 48.2523 55.9497 48.3576 56.0669C48.4628 56.1842 48.6056 56.25 48.7545 56.25C48.9034 56.25 49.0462 56.1842 49.1515 56.0669C49.2568 55.9497 49.3159 55.7908 49.3159 55.625V54.8925C49.6903 54.7449 50.0059 54.4548 50.2068 54.0734C50.4076 53.6919 50.481 53.2437 50.4138 52.8079C50.3466 52.3721 50.1433 51.9768 49.8397 51.6917C49.5361 51.4066 49.1517 51.2502 48.7545 51.25C48.6056 51.25 48.4628 51.1842 48.3576 51.0669C48.2523 50.9497 48.1931 50.7908 48.1931 50.625C48.1931 50.4592 48.2523 50.3003 48.3576 50.1831C48.4628 50.0658 48.6056 50 48.7545 50Z" fill="black"/>
<path d="M48.7545 46.25C49.0646 46.25 49.3159 45.9702 49.3159 45.625C49.3159 45.2798 49.0646 45 48.7545 45C48.4445 45 48.1931 45.2798 48.1931 45.625C48.1931 45.9702 48.4445 46.25 48.7545 46.25Z" fill="black"/>
</svg>
