<svg width="76" height="76" viewBox="0 0 76 76" fill="none" xmlns="http://www.w3.org/2000/svg">
<circle cx="38" cy="38" r="38" fill="#E4E4E4"/>
<path d="M39.9752 25.1517C38.165 23.1364 35.7583 22.0265 33.1983 22.0265C30.6383 22.0265 28.2314 23.1364 26.4214 25.1517C24.6112 27.1669 23.6143 29.8465 23.6143 32.6963C23.6143 35.5464 24.6112 38.2258 26.4214 40.2411C28.2316 42.2563 30.6383 43.3663 33.1983 43.3663C35.7583 43.3663 38.1651 42.2563 39.9752 40.2411C43.7122 36.0809 43.7122 29.3119 39.9752 25.1517ZM38.5358 38.6386C37.1101 40.226 35.2145 41.1002 33.1982 41.1002C31.1819 41.1002 29.2863 40.2259 27.8606 38.6386C26.4349 37.0513 25.6497 34.9411 25.6497 32.6964C25.6497 30.4518 26.4349 28.3413 27.8606 26.7541C29.2863 25.1667 31.1819 24.2928 33.1982 24.2928C35.2145 24.2928 37.1101 25.1669 38.5358 26.7541C41.479 30.0307 41.479 35.3622 38.5358 38.6386Z" fill="black"/>
<path d="M54.981 51.3162C54.9638 51.2939 54.9459 51.2722 54.927 51.2512L44.7198 39.8729C47.5292 34.2775 46.8005 27.0558 42.5328 22.3045C40.0395 19.5288 36.7243 18 33.1981 18C29.6719 18 26.3569 19.5286 23.8636 22.3043C18.7165 28.0345 18.7165 37.3583 23.8636 43.0884C26.3569 45.8642 29.6719 47.393 33.1983 47.393C35.4895 47.393 37.6915 46.7469 39.6368 45.5332L49.8656 56.8871C49.885 56.9086 49.9051 56.929 49.9255 56.9484C50.6066 57.6504 51.4811 58.0001 52.3554 58.0001C53.2748 58 54.1941 57.6129 54.8867 56.8418C56.2383 55.3371 56.2758 52.8722 54.981 51.3162ZM53.4473 55.2393C52.8585 55.895 51.8904 55.9067 51.2892 55.2654C51.2818 55.2574 51.2743 55.2497 51.2665 55.2419L43.8188 46.9748L46.1023 44.6209L53.4519 52.8139C53.458 52.8214 53.4643 52.8288 53.4706 52.8362C54.0465 53.506 54.036 54.5839 53.4473 55.2393ZM33.1983 45.1268C30.2159 45.1268 27.4119 43.8339 25.303 41.486C20.9497 36.6393 20.9497 28.7533 25.303 23.9068C27.4119 21.5591 30.2157 20.2662 33.1981 20.2662C36.1806 20.2662 38.9846 21.5591 41.0934 23.9071C45.4467 28.7535 45.4467 36.6395 41.0934 41.4861C38.9845 43.8338 36.1806 45.1268 33.1983 45.1268ZM42.5328 43.0884C42.9043 42.6748 43.2481 42.242 43.566 41.7937L44.6629 43.0164L42.3761 45.3737L41.3618 44.2476C41.769 43.8895 42.1603 43.5032 42.5328 43.0884Z" fill="black"/>
<path d="M36.2382 31.5163H34.0893V29.124C34.0893 28.4982 33.6337 27.9909 33.0714 27.9909C32.5094 27.9909 32.0536 28.4982 32.0536 29.124V31.5163H29.9047C29.3426 31.5163 28.8868 32.0237 28.8868 32.6495C28.8868 33.2752 29.3425 33.7826 29.9047 33.7826H32.0536V36.175C32.0536 36.8008 32.5093 37.3081 33.0714 37.3081C33.6337 37.3081 34.0893 36.8008 34.0893 36.175V33.7826H36.2382C36.8003 33.7826 37.2561 33.2753 37.2561 32.6495C37.256 32.0237 36.8003 31.5163 36.2382 31.5163Z" fill="black"/>
</svg>
