<svg width="76" height="76" viewBox="0 0 76 76" fill="none" xmlns="http://www.w3.org/2000/svg">
<circle cx="38" cy="38" r="38" fill="#E4E4E4"/>
<path d="M33.6628 33.4161C33.6787 33.0927 33.9274 32.8469 34.2178 32.8669C34.5063 32.8847 34.7271 33.1615 34.7112 33.4847L33.9434 47.647C33.8936 48.5794 33.5455 49.4276 32.9964 50.0366C32.5747 50.5083 32.0336 50.8383 31.421 50.96V53.5998C31.421 54.2022 31.1982 54.7515 30.8421 55.1479C30.486 55.5465 29.9927 55.7922 29.4496 55.7922H25.8411C25.3 55.7922 24.8066 55.5464 24.4506 55.1479C24.0925 54.7515 23.8717 54.2022 23.8717 53.5998V50.96C23.259 50.8383 22.718 50.5083 22.2943 50.0366C21.7472 49.4276 21.3991 48.5794 21.3474 47.647L21.2737 46.2917C21.2578 45.9706 21.4785 45.6937 21.767 45.6738C22.0575 45.6561 22.3061 45.9019 22.324 46.223L22.3957 47.5783C22.4315 48.2162 22.6682 48.7943 23.0402 49.2083C23.3903 49.598 23.8618 49.8394 24.3989 49.8394H30.8939C31.4309 49.8394 31.9024 49.598 32.2525 49.2083C32.6245 48.7942 32.8612 48.2162 32.895 47.5783L33.2173 41.6299H30.9296C30.7744 41.9842 30.5895 42.3119 30.3786 42.6043C29.6863 43.5656 28.7215 44.159 27.6453 44.159C26.5711 44.159 25.6063 43.5655 24.9141 42.6043C24.7032 42.312 24.5182 41.9842 24.363 41.6299H22.0754L22.1788 43.5744C22.1967 43.8978 21.9759 44.1746 21.6855 44.1922C21.3971 44.2123 21.1484 43.9664 21.1305 43.6431L20.291 28.1122C19.9985 28.0168 19.736 27.8419 19.5251 27.6072C19.2009 27.2462 19 26.7479 19 26.2009C19 25.6516 19.2009 25.1533 19.5251 24.7924C19.8493 24.4314 20.2969 24.2077 20.7903 24.2077H34.5023C34.9956 24.2077 35.4432 24.4314 35.7675 24.7924C36.0917 25.1533 36.2926 25.6516 36.2926 26.2009C36.2926 26.7479 36.0917 27.2462 35.7675 27.6072C35.5566 27.8419 35.294 28.0168 35.0016 28.1122L34.8543 30.8338C34.8364 31.1571 34.5878 31.4029 34.2993 31.383C34.0089 31.3653 33.7881 31.0885 33.806 30.7651L33.9452 28.1918H21.3473L21.7909 36.4013H24.363C24.5181 36.047 24.7031 35.7193 24.914 35.4268C25.6063 34.4657 26.5711 33.8723 27.6452 33.8723C28.7195 33.8723 29.6862 34.4658 30.3785 35.4268C30.5894 35.7192 30.7744 36.047 30.9295 36.4013H33.4997L33.6628 33.4161ZM45.9048 36.0625C46.0739 36.7002 47.341 37.0857 48.5963 37.4688C50.0584 37.9161 51.5065 38.359 51.8825 39.4508H53.2253C53.5157 39.4508 53.7524 39.7143 53.7524 40.0377V42.5822C53.7524 42.9056 53.5157 43.1692 53.2253 43.1692H51.976V44.5422H52.9289C53.4799 44.5422 53.9812 44.7924 54.3433 45.1955C54.7053 45.6008 54.9301 46.1566 54.9301 46.77V48.8407C54.9301 49.1641 54.6953 49.4253 54.4049 49.4253C54.1146 49.4253 53.8778 49.164 53.8778 48.8407V46.77C53.8778 46.4799 53.7704 46.2164 53.5993 46.0259C53.4262 45.8333 53.1895 45.7137 52.9289 45.7137C47.91 45.7137 42.891 45.7137 37.8741 45.7137C37.6135 45.7137 37.3748 45.8333 37.2037 46.0259C37.0307 46.2165 36.9252 46.48 36.9252 46.77V53.5644C36.9252 53.8545 37.0306 54.118 37.2037 54.3084C37.3748 54.5012 37.6135 54.6208 37.8741 54.6208H52.9289C53.1894 54.6208 53.4261 54.5012 53.5993 54.3084C53.7704 54.1179 53.8778 53.8544 53.8778 53.5644V51.4938C53.8778 51.1704 54.1145 50.9091 54.4049 50.9091C54.6954 50.9091 54.9301 51.1705 54.9301 51.4938V53.5644C54.9301 54.1779 54.7053 54.7338 54.3433 55.139C53.9812 55.542 53.4799 55.7922 52.9289 55.7922H37.8741C37.3231 55.7922 36.8218 55.542 36.4598 55.139C36.0978 54.7337 35.871 54.1778 35.871 53.5644V46.77C35.871 46.1565 36.0977 45.6007 36.4598 45.1955C36.8218 44.7924 37.3231 44.5422 37.8741 44.5422H38.827V43.1692H37.5777C37.2853 43.1692 37.0505 42.9056 37.0505 42.5822V40.0377C37.0505 39.7143 37.2853 39.4508 37.5777 39.4508H38.9225C39.2706 38.3081 40.5358 37.0058 41.8646 36.1333C42.4236 35.7658 42.9944 35.469 43.5097 35.2874C44.0806 35.088 44.6078 35.0194 45.0255 35.1368C45.4591 35.2608 45.7714 35.5553 45.9048 36.0625ZM48.3217 38.596C46.784 38.1265 45.2324 37.6525 44.8982 36.3924C44.8803 36.3304 44.8345 36.2928 44.7649 36.2729C44.55 36.2108 44.2179 36.2662 43.826 36.4057C43.3784 36.5629 42.8811 36.822 42.3957 37.1409C41.3832 37.8054 40.4144 38.7 40.0424 39.4508H50.5199C50.0364 39.1186 49.1811 38.8595 48.3217 38.596ZM31.3055 40.4584H33.2809L33.438 37.5729H31.3055C31.405 38.0312 31.4587 38.5161 31.4587 39.0166C31.4587 39.515 31.405 40 31.3055 40.4584ZM23.987 40.4584C23.8876 40 23.8338 39.515 23.8338 39.0167C23.8338 38.5162 23.8875 38.0313 23.987 37.5729H21.8545L22.0117 40.4585H23.987V40.4584ZM29.561 36.1599C29.0636 35.4712 28.3853 35.0437 27.6453 35.0437C26.9053 35.0437 26.2289 35.4712 25.7317 36.1599C25.2105 36.8841 24.8862 37.894 24.8862 39.0167C24.8862 40.1373 25.2105 41.1472 25.7317 41.8713C26.2289 42.56 26.9053 42.9875 27.6453 42.9875C28.3853 42.9875 29.0636 42.56 29.561 41.8713C30.0822 41.1471 30.4044 40.1373 30.4044 39.0167C30.4044 37.894 30.0822 36.884 29.561 36.1599ZM45.4015 47.0047C46.0818 47.0047 46.6905 47.3768 47.1241 47.9792C47.5319 48.5461 47.7846 49.3191 47.7846 50.1672C47.7846 51.0133 47.5319 51.7883 47.1241 52.3553C46.6905 52.9576 46.0817 53.3297 45.4015 53.3297C44.7212 53.3297 44.1125 52.9576 43.6788 52.3553C43.271 51.7883 43.0183 51.0133 43.0183 50.1672C43.0183 49.3192 43.2709 48.5461 43.6788 47.9792C44.1125 47.3768 44.7211 47.0047 45.4015 47.0047ZM46.3046 48.7123C46.0679 48.3822 45.7476 48.1764 45.4014 48.1764C45.0553 48.1764 44.735 48.3823 44.4963 48.7123C44.2337 49.0778 44.0707 49.5915 44.0707 50.1672C44.0707 50.7431 44.2338 51.2568 44.4963 51.6222C44.735 51.9522 45.0553 52.1559 45.4014 52.1559C45.7476 52.1559 46.0678 51.9522 46.3046 51.6222C46.5692 51.2568 46.7323 50.7431 46.7323 50.1672C46.7323 49.5915 46.5692 49.0777 46.3046 48.7123ZM38.1028 41.9975H52.7V40.6245C47.8343 40.6245 42.9686 40.6245 38.1028 40.6245V41.9975ZM50.9216 44.5422V43.1692H39.8793V44.5422H50.9216ZM30.3667 51.011H24.924V53.5998C24.924 53.8789 25.0274 54.1336 25.1945 54.3196C25.3616 54.5057 25.5904 54.6209 25.841 54.6209H29.4495C29.7022 54.6209 29.9309 54.5057 30.098 54.3196C30.2651 54.1336 30.3666 53.8789 30.3666 53.5998V51.011H30.3667ZM34.5023 25.3792H20.7903C20.5874 25.3792 20.4044 25.4722 20.2691 25.6206C20.1358 25.7713 20.0523 25.975 20.0523 26.2009C20.0523 26.4245 20.1358 26.6305 20.2691 26.7789C20.4044 26.9272 20.5874 27.0202 20.7903 27.0202H34.5023C34.7051 27.0202 34.8881 26.9273 35.0234 26.7789C35.1567 26.6305 35.2403 26.4245 35.2403 26.2009C35.2403 25.975 35.1567 25.7713 35.0234 25.6206C34.8882 25.4722 34.7052 25.3792 34.5023 25.3792Z" fill="black"/>
</svg>
