<svg width="76" height="76" viewBox="0 0 76 76" fill="none" xmlns="http://www.w3.org/2000/svg">
<circle cx="38" cy="38" r="38" fill="#E4E4E4"/>
<path d="M51.8498 45.4834C51.6006 44.4722 50.839 43.7197 49.9075 43.5642V28.3644H51.0972C51.4257 28.3644 51.6921 28.0679 51.6921 27.7021V21.0796C51.6921 20.7136 51.4257 20.4174 51.0972 20.4174H24.923C24.5945 20.4174 24.3282 20.7136 24.3282 21.0796V27.7021C24.3282 28.0679 24.5945 28.3644 24.923 28.3644H26.1128V41.6094H25.5179C24.0415 41.6056 22.5953 42.0767 21.3538 42.9663V39.6227C21.3538 39.2566 21.0875 38.9604 20.7589 38.9604H16.5949C16.2664 38.9604 16 39.2566 16 39.6227V54.8545C16 55.2202 16.2664 55.5167 16.5949 55.5167H20.7589C21.0875 55.5167 21.3538 55.2202 21.3538 54.8545V51.5112C22.5955 52.4001 24.0415 52.8713 25.5179 52.8677H35.2856C35.9624 52.8664 36.6359 52.7675 37.2898 52.5735L50.1692 48.7325C51.4365 48.3481 52.1873 46.8968 51.8498 45.4834ZM25.5179 21.7419H50.5024V27.0399H25.5179V21.7419ZM27.3025 28.3644H48.7178V43.678L41.8137 45.7391C41.5294 44.9844 40.9493 44.4175 40.2403 44.2012L32.225 41.808C31.7736 41.6757 31.3089 41.6088 30.8421 41.6094H27.3025V28.3644ZM20.1641 54.1922H17.1897V40.2849H20.1641V54.1922ZM49.8604 47.453L36.9833 51.2939C36.4294 51.4585 35.859 51.5423 35.2856 51.5432H25.5179C24.1016 51.5468 22.7228 51.0352 21.5917 50.0861L21.3538 49.8876V44.5896L21.5917 44.3907C22.7228 43.4416 24.1016 42.9297 25.5179 42.9339H30.8421C31.2055 42.9336 31.5677 42.986 31.9194 43.0895L39.9321 45.4808C40.4056 45.626 40.7521 46.0777 40.8061 46.6213C40.8125 46.6484 40.8204 46.6753 40.8299 46.7015C40.823 46.7299 40.8177 46.7587 40.8143 46.7881C40.8148 46.8958 40.8018 47.0032 40.775 47.1067C40.635 47.6839 40.1654 48.0852 39.6283 48.0861C39.5234 48.0871 39.4195 48.0722 39.3184 48.0425L34.262 46.533C34.0546 46.4644 33.8301 46.5265 33.6755 46.6953C33.5213 46.8641 33.4612 47.1128 33.519 47.345C33.5768 47.5768 33.7432 47.756 33.9538 47.8119L39.0102 49.322C39.2121 49.3812 39.4203 49.411 39.6295 49.4106C40.6989 49.41 41.6363 48.6135 41.9189 47.4649C41.952 47.332 41.9744 47.1962 41.9863 47.0591L49.2383 44.8942C49.29 44.8796 49.346 44.8648 49.3989 44.8551C49.9911 44.77 50.548 45.1868 50.701 45.829C50.7278 45.9409 50.7411 46.0564 50.7402 46.1721C50.7411 46.7716 50.3804 47.2968 49.8604 47.453Z" fill="black"/>
<path d="M35.0358 31.0133H40.9845C41.313 31.0133 41.5793 30.7168 41.5793 30.3511C41.5793 29.985 41.313 29.6888 40.9845 29.6888H35.0358C34.7073 29.6888 34.4409 29.985 34.4409 30.3511C34.4409 30.7168 34.7073 31.0133 35.0358 31.0133Z" fill="black"/>
</svg>
