<svg width="76" height="76" viewBox="0 0 76 76" fill="none" xmlns="http://www.w3.org/2000/svg">
<circle cx="38" cy="38" r="38" fill="#E4E4E4"/>
<path d="M42.9463 48.4354C43.1074 48.1674 43.4337 48.0966 43.6744 48.2759C43.9151 48.4553 43.9787 48.8185 43.8176 49.0865C43.5133 49.5936 43.199 50.0852 42.8906 50.5437C42.7136 50.8094 42.5385 51.0663 42.3674 51.3077H44.8082C45.0987 51.3077 45.3354 51.5713 45.3354 51.8946C45.3354 52.218 45.0987 52.4815 44.8082 52.4815H37.2769C36.9865 52.4815 36.7498 52.218 36.7498 51.8946C36.7498 51.5713 36.9865 51.3077 37.2769 51.3077H39.7198C38.8525 50.0742 37.8579 48.5152 37.1219 46.9738C36.4634 45.5963 36.0058 44.2166 36.0058 43.0473C36.0058 41.4971 36.5688 40.0952 37.4819 39.081C38.3929 38.0645 39.6522 37.4377 41.0447 37.4377C42.4351 37.4377 43.6944 38.0645 44.6055 39.081C45.5185 40.0953 46.0814 41.4971 46.0814 43.0473C46.0814 43.581 45.986 44.159 45.8189 44.7636C45.6398 45.4059 45.3813 46.0769 45.0709 46.7501C44.9377 47.0358 44.6214 47.1487 44.3627 47.0025C44.1062 46.8541 44.0046 46.502 44.136 46.2141C44.4205 45.5985 44.6572 44.9917 44.8163 44.4203C44.9516 43.9287 45.0291 43.4659 45.0291 43.0473C45.0291 41.8204 44.5835 40.7109 43.8615 39.9092C43.1413 39.1053 42.1447 38.6092 41.0446 38.6092C39.9426 38.6092 38.9459 39.1053 38.2259 39.9092C37.5038 40.7109 37.0581 41.8204 37.0581 43.0473C37.0581 44.0017 37.4659 45.1977 38.0508 46.4245C38.9022 48.2072 40.1176 50.0187 41.0446 51.2833C41.3549 50.858 41.697 50.3731 42.0472 49.8482C42.3476 49.4009 42.6519 48.9248 42.9463 48.4354ZM41.335 28.4066V22.8613C41.335 22.3984 41.1638 21.9755 40.8894 21.6699C40.6129 21.362 40.2349 21.1716 39.8172 21.1716H38.1144C37.6986 21.1716 37.3186 21.3621 37.0442 21.6699C36.7677 21.9755 36.5966 22.3985 36.5966 22.8613V28.4066H41.335ZM36.0436 21.1716H33.9588C33.5431 21.1716 33.1632 21.362 32.8886 21.6698C32.6121 21.9755 32.4411 22.3984 32.4411 22.8612V28.4066H35.5442V22.8612C35.5442 22.2301 35.7292 21.6455 36.0436 21.1716ZM31.3888 28.4066V22.8613C31.3888 22.0729 31.6792 21.3576 32.1446 20.8394C32.6101 20.3211 33.2526 20 33.9588 20H43.9728C44.6809 20 45.3234 20.3211 45.7889 20.8394C46.2545 21.3576 46.5429 22.0729 46.5429 22.8613V28.4066H50.786C51.0764 28.4066 51.3111 28.668 51.3111 28.9913V31.2678C51.3111 31.5911 51.0764 31.8525 50.786 31.8525C50.4936 31.8525 50.2588 31.5911 50.2588 31.2678V29.5781H46.5429V30.9467C46.9009 31.0509 47.2192 31.2612 47.4718 31.5425C47.8458 31.9566 48.0766 32.5302 48.0766 33.1635C48.0766 33.7969 47.8458 34.3683 47.4718 34.7846C47.0998 35.1987 46.5846 35.4556 46.0157 35.4556C45.4488 35.4556 44.9335 35.1987 44.5615 34.7846C44.1876 34.3683 43.9568 33.7969 43.9568 33.1635C43.9568 32.5302 44.1876 31.9566 44.5615 31.5425C44.8142 31.2613 45.1325 31.0509 45.4905 30.9467V29.5781H36.5967V30.9467C36.9547 31.0509 37.273 31.2612 37.5276 31.5425C37.8996 31.9566 38.1304 32.5302 38.1304 33.1635C38.1304 33.7969 37.8996 34.3683 37.5276 34.7846C37.1536 35.1987 36.6404 35.4556 36.0715 35.4556C35.5025 35.4556 34.9873 35.1987 34.6153 34.7846C34.2433 34.3683 34.0126 33.7969 34.0126 33.1635C34.0126 32.5302 34.2433 31.9566 34.6153 31.5425C34.8679 31.2613 35.1882 31.0509 35.5442 30.9467V29.5781H31.8284V55.0371L33.3462 58.8285H51.6792L50.3244 55.438C50.2827 55.3538 50.2588 55.2586 50.2588 55.1567V33.9209C50.2588 33.5976 50.4936 33.3363 50.786 33.3363C51.0764 33.3363 51.3111 33.5977 51.3111 33.9209V55.0371L52.9661 59.1762C53.0854 59.4707 52.9661 59.8162 52.7015 59.9491C52.6358 59.9823 52.5524 60 52.4807 60H25.4449C25.1544 60 24.9177 59.7387 24.9177 59.4154C24.9177 59.3135 24.9416 59.216 24.9833 59.1341L26.6205 55.0371V52.8802C26.6205 52.5568 26.8572 52.2955 27.1476 52.2955C27.4381 52.2955 27.6728 52.5568 27.6728 52.8802V55.128C27.6728 55.2188 27.6589 55.3095 27.6271 55.3937L26.2525 58.8285H32.1964L30.8417 55.438C30.7999 55.3538 30.776 55.2586 30.776 55.1567V29.5781H27.6728V50.227C27.6728 50.5503 27.438 50.8116 27.1476 50.8116C26.8572 50.8116 26.6205 50.5503 26.6205 50.227V28.9913C26.6205 28.6679 26.8572 28.4066 27.1476 28.4066H31.3888ZM41.89 21.1716C42.2024 21.6455 42.3874 22.2302 42.3874 22.8613V28.4066H45.4906V22.8613C45.4906 22.3984 45.3195 21.9755 45.045 21.6699C44.7686 21.362 44.3905 21.1716 43.9728 21.1716H41.89V21.1716ZM46.5429 32.4039C46.5429 32.7273 46.3081 32.9908 46.0157 32.9908C45.7253 32.9908 45.4905 32.7273 45.4905 32.4039V32.2091C45.4229 32.2533 45.3613 32.3087 45.3055 32.3707C45.1225 32.5744 45.0112 32.8534 45.0112 33.1634C45.0112 33.4735 45.1225 33.7526 45.3055 33.9563C45.4865 34.1578 45.7392 34.284 46.0157 34.284C46.2942 34.284 46.5468 34.1577 46.7278 33.9563C46.9108 33.7525 47.0222 33.4734 47.0222 33.1634C47.0222 32.8534 46.9108 32.5744 46.7278 32.3707C46.6721 32.3087 46.6104 32.2533 46.5428 32.2091V32.4039H46.5429ZM36.5967 32.2091V32.4039C36.5967 32.7273 36.3619 32.9908 36.0715 32.9908C35.781 32.9908 35.5442 32.7273 35.5442 32.4039V32.2091C35.4767 32.2533 35.415 32.3087 35.3592 32.3707C35.1783 32.5744 35.0649 32.8534 35.0649 33.1634C35.0649 33.4735 35.1783 33.7526 35.3592 33.9563C35.5423 34.1578 35.7929 34.284 36.0715 34.284C36.3499 34.284 36.6006 34.1577 36.7836 33.9563C36.9647 33.7525 37.078 33.4734 37.078 33.1634C37.078 32.8534 36.9647 32.5744 36.7836 32.3707C36.728 32.3088 36.6643 32.2534 36.5967 32.2091ZM41.0446 40.0687C41.7826 40.0687 42.4511 40.403 42.9344 40.9412C43.4198 41.4793 43.7182 42.2234 43.7182 43.0473C43.7182 43.8689 43.4198 44.613 42.9344 45.1511C42.4511 45.6915 41.7826 46.0237 41.0446 46.0237C40.3046 46.0237 39.6363 45.6915 39.1528 45.1511C38.6694 44.613 38.369 43.8688 38.369 43.0473C38.369 42.2234 38.6694 41.4793 39.1528 40.9412C39.6362 40.403 40.3046 40.0687 41.0446 40.0687ZM42.1904 41.7695C41.8979 41.4416 41.4921 41.2402 41.0446 41.2402C40.5951 41.2402 40.1912 41.4417 39.8968 41.7695C39.6044 42.0949 39.4214 42.5468 39.4214 43.0473C39.4214 43.5455 39.6044 43.9973 39.8968 44.3228C40.1912 44.6505 40.5951 44.8521 41.0446 44.8521C41.4921 44.8521 41.8979 44.6505 42.1904 44.3228C42.4848 43.9973 42.6659 43.5455 42.6659 43.0473C42.6658 42.5468 42.4848 42.095 42.1904 41.7695Z" fill="black"/>
</svg>
